<svg width="449" height="296" viewBox="0 0 449 296" fill="none" xmlns="http://www.w3.org/2000/svg">
<path d="M119.342 258.711H95.5173V295.6H78.0607V258.711H0V242.791L76.1943 134.209H95.5173V242.132H119.342V258.711ZM78.0607 242.132V188.775C78.0607 178.308 78.4267 166.487 79.1586 153.312H78.2803C74.767 160.339 71.4733 166.158 68.3992 170.769L18.2251 242.132H78.0607Z" fill="white"/>
<path d="M448.863 258.711H425.039V295.6H407.582V258.711H329.521V242.791L405.716 134.209H425.039V242.132H448.863V258.711ZM407.582 242.132V188.775C407.582 178.308 407.948 166.487 408.68 153.312H407.802C404.288 160.339 400.995 166.158 397.921 170.769L347.747 242.132H407.582Z" fill="white"/>
<rect x="115.333" y="132.778" width="223.881" height="49.4282" rx="24.7141" fill="black"/>
<ellipse cx="278.155" cy="157.977" rx="18.4144" ry="10.661" fill="white"/>
<ellipse cx="176.391" cy="157.977" rx="18.4144" ry="10.661" fill="white"/>
<path d="M125.024 86.2571C125.024 38.6186 163.643 0 211.282 0H243.264C290.903 0 329.522 38.6186 329.522 86.2571V86.2571H125.024V86.2571Z" fill="black"/>
<rect x="125.024" y="88.1954" width="15.7306" height="36.8289" fill="black"/>
<rect x="176.149" y="88.1954" width="16.7137" height="36.8289" fill="black"/>
<rect x="141.738" y="88.1954" width="16.7137" height="36.8289" fill="black"/>
<rect x="193.846" y="88.1954" width="15.7306" height="36.8289" fill="black"/>
<rect x="244.97" y="88.1954" width="15.7306" height="36.8289" fill="black"/>
<rect x="296.094" y="88.1954" width="15.7306" height="36.8289" fill="black"/>
<rect x="159.435" y="88.1954" width="15.7306" height="36.8289" fill="black"/>
<rect x="210.559" y="88.1954" width="16.7137" height="36.8289" fill="black"/>
<rect x="261.684" y="88.1954" width="16.7137" height="36.8289" fill="black"/>
<rect x="312.808" y="88.1954" width="16.7137" height="36.8289" fill="black"/>
<rect x="228.256" y="88.1954" width="15.7306" height="36.8289" fill="black"/>
<rect x="279.38" y="88.1954" width="15.7306" height="36.8289" fill="black"/>
<path d="M313.045 191.413C313.045 239.319 274.21 278.155 226.304 278.155V278.155C178.398 278.155 139.562 239.319 139.562 191.413L139.562 189.96L313.045 189.96L313.045 191.413Z" fill="#EDAF74"/>
<ellipse cx="226.304" cy="226.304" rx="22.7758" ry="13.0581" fill="white"/>
</svg>
